<svg id="Layer_1" data-name="Layer 1" xmlns="http://www.w3.org/2000/svg" viewBox="0 0 168.13 7.24"><defs><style>.cls-1{fill:#941515;}</style></defs><title>stanford_up_logotype</title><path class="cls-1" d="M.53,7.48,1,6.9a3.33,3.33,0,0,0,2.4,1C4.36,7.89,5,7.39,5,6.7v0c0-.65-.35-1-1.82-1.33S.81,4.48.81,3.33v0A2.07,2.07,0,0,1,3.11,1.4a3.65,3.65,0,0,1,2.46.86l-.46.61a3.07,3.07,0,0,0-2-.76c-.91,0-1.49.5-1.49,1.13v0c0,.66.36,1,1.9,1.36s2.28.91,2.28,2v0c0,1.2-1,2-2.39,2A4.1,4.1,0,0,1,.53,7.48Z" transform="translate(-0.53 -1.38)"/><path class="cls-1" d="M9.49,2.23H7.14V1.5h5.5v.73H10.29V8.5h-.8Z" transform="translate(-0.53 -1.38)"/><path class="cls-1" d="M16.21,1.45H17L20.14,8.5h-.85l-.82-1.85H14.66L13.83,8.5H13Zm1.95,4.49L16.57,2.37,15,5.94Z" transform="translate(-0.53 -1.38)"/><path class="cls-1" d="M21.92,1.5h.74l4.41,5.61V1.5h.77v7h-.63L22.69,2.76V8.5h-.77Z" transform="translate(-0.53 -1.38)"/><path class="cls-1" d="M30.22,1.5h5v.73H31v2.5H34.8v.72H31V8.5h-.79Z" transform="translate(-0.53 -1.38)"/><path class="cls-1" d="M36.72,5V5a3.57,3.57,0,1,1,7.14,0s0,0,0,0a3.57,3.57,0,1,1-7.14,0ZM43,5V5a2.78,2.78,0,0,0-2.76-2.89A2.75,2.75,0,0,0,37.54,5V5A2.78,2.78,0,0,0,40.3,7.89,2.75,2.75,0,0,0,43,5Z" transform="translate(-0.53 -1.38)"/><path class="cls-1" d="M45.93,1.5h3a2.76,2.76,0,0,1,2,.7,1.93,1.93,0,0,1,.54,1.38v0a2,2,0,0,1-1.9,2L51.72,8.5h-1l-2-2.72h-2V8.5h-.79Zm2.94,3.57c1.05,0,1.8-.54,1.8-1.44v0c0-.86-.66-1.38-1.79-1.38H46.72V5.07Z" transform="translate(-0.53 -1.38)"/><path class="cls-1" d="M53.56,1.5H56A3.49,3.49,0,0,1,59.71,5V5A3.5,3.5,0,0,1,56,8.5H53.56ZM56,7.77A2.71,2.71,0,0,0,58.89,5V5A2.72,2.72,0,0,0,56,2.23H54.35V7.77Z" transform="translate(-0.53 -1.38)"/><path class="cls-1" d="M65.07,5.57V1.5h.79v4c0,1.51.8,2.36,2.14,2.36s2.11-.78,2.11-2.31V1.5h.79v4a2.92,2.92,0,1,1-5.83.06Z" transform="translate(-0.53 -1.38)"/><path class="cls-1" d="M73.17,1.5h.74l4.41,5.61V1.5h.77v7h-.63L73.94,2.76V8.5h-.77Z" transform="translate(-0.53 -1.38)"/><path class="cls-1" d="M81.54,1.5h.79v7h-.79Z" transform="translate(-0.53 -1.38)"/><path class="cls-1" d="M84.18,1.5h.88l2.49,6,2.5-6h.85l-3,7.05h-.7Z" transform="translate(-0.53 -1.38)"/><path class="cls-1" d="M92.68,1.5h5.06v.72H93.47V4.61h3.82v.72H93.47V7.78h4.32V8.5H92.68Z" transform="translate(-0.53 -1.38)"/><path class="cls-1" d="M99.78,1.5h3a2.76,2.76,0,0,1,2,.7,1.93,1.93,0,0,1,.54,1.38v0a2,2,0,0,1-1.9,2l2.15,2.86h-1l-2-2.72h-2V8.5h-.79Zm2.94,3.57c1,0,1.8-.54,1.8-1.44v0c0-.86-.66-1.38-1.79-1.38h-2.16V5.07Z" transform="translate(-0.53 -1.38)"/><path class="cls-1" d="M107,7.48l.49-.58a3.33,3.33,0,0,0,2.4,1c.94,0,1.56-.5,1.56-1.19v0c0-.65-.35-1-1.82-1.33s-2.35-.87-2.35-2v0a2.07,2.07,0,0,1,2.3-1.91,3.65,3.65,0,0,1,2.46.86l-.46.61a3.07,3.07,0,0,0-2-.76c-.91,0-1.49.5-1.49,1.13v0c0,.66.36,1,1.9,1.36s2.28.91,2.28,2v0c0,1.2-1,2-2.39,2A4.1,4.1,0,0,1,107,7.48Z" transform="translate(-0.53 -1.38)"/><path class="cls-1" d="M114.28,1.5h.79v7h-.79Z" transform="translate(-0.53 -1.38)"/><path class="cls-1" d="M119.37,2.23H117V1.5h5.5v.73h-2.35V8.5h-.8Z" transform="translate(-0.53 -1.38)"/><path class="cls-1" d="M126.59,5.73,123.68,1.5h1L127,5l2.38-3.5h.92l-2.91,4.22V8.5h-.8Z" transform="translate(-0.53 -1.38)"/><path class="cls-1" d="M135.36,1.5H138c1.58,0,2.62.84,2.62,2.22v0c0,1.51-1.26,2.29-2.75,2.29h-1.7V8.5h-.79Zm2.52,3.81c1.16,0,1.92-.62,1.92-1.54v0c0-1-.75-1.52-1.88-1.52h-1.77V5.31Z" transform="translate(-0.53 -1.38)"/><path class="cls-1" d="M142.44,1.5h3a2.76,2.76,0,0,1,2,.7A1.93,1.93,0,0,1,148,3.58v0a2,2,0,0,1-1.9,2l2.15,2.86h-1l-2-2.72h-2V8.5h-.79Zm2.94,3.57c1.05,0,1.8-.54,1.8-1.44v0c0-.86-.66-1.38-1.79-1.38h-2.16V5.07Z" transform="translate(-0.53 -1.38)"/><path class="cls-1" d="M150.07,1.5h5.06v.72h-4.27V4.61h3.82v.72h-3.82V7.78h4.32V8.5h-5.11Z" transform="translate(-0.53 -1.38)"/><path class="cls-1" d="M156.71,7.48l.49-.58a3.33,3.33,0,0,0,2.4,1c.94,0,1.56-.5,1.56-1.19v0c0-.65-.35-1-1.82-1.33s-2.35-.87-2.35-2v0a2.07,2.07,0,0,1,2.3-1.91,3.65,3.65,0,0,1,2.46.86l-.46.61a3.07,3.07,0,0,0-2-.76c-.91,0-1.49.5-1.49,1.13v0c0,.66.36,1,1.9,1.36s2.28.91,2.28,2v0c0,1.2-1,2-2.39,2A4.1,4.1,0,0,1,156.71,7.48Z" transform="translate(-0.53 -1.38)"/><path class="cls-1" d="M163.41,7.48l.49-.58a3.33,3.33,0,0,0,2.4,1c.94,0,1.56-.5,1.56-1.19v0c0-.65-.35-1-1.82-1.33s-2.35-.87-2.35-2v0A2.07,2.07,0,0,1,166,1.4a3.65,3.65,0,0,1,2.46.86l-.46.61a3.07,3.07,0,0,0-2-.76c-.91,0-1.49.5-1.49,1.13v0c0,.66.36,1,1.9,1.36s2.28.91,2.28,2v0c0,1.2-1,2-2.39,2A4.1,4.1,0,0,1,163.41,7.48Z" transform="translate(-0.53 -1.38)"/></svg>
